<svg xmlns="http://www.w3.org/2000/svg" width="136" height="139" viewBox="0 0 136 139" data-sentry-element="svg" data-sentry-component="Tape" data-sentry-source-file="index.jsx"><g id="Page-1" fill="none" fill-opacity="0.6" fill-rule="evenodd" stroke="none" stroke-width="1" data-sentry-element="g" data-sentry-source-file="index.jsx"><g id="tape" fill="#DFFF9D" fill-rule="nonzero" stroke="#BAF24A" stroke-width="4" transform="translate(2.12 2.75)" data-sentry-element="g" data-sentry-source-file="index.jsx"><path id="Path" d="M9.001 87.662C29.514 70.568 75.481 25.255 97.171 3.7c9.836-9.774 6.845 2.641 9.5 5s5.815.17 9 3-2.185 6.17 1.001 9 3.638.437 7 2c2.69 1.25 1.094 5 1 8-.175 5.542 13.761-1.779 3.184 8.761-13.297 13.252-64.748 62.351-91.684 88.74-16.01 15.683-2-5-11.5-5s2.474-12.306-8.763-12.306-3.82-7.512-5.237-10.195-22.184 4.056-1.67-13.038Z" data-sentry-element="path" data-sentry-source-file="index.jsx"></path></g></g></svg>