<?xml version="1.0" encoding="utf-8"?>
<!-- Generator: Adobe Illustrator 26.3.1, SVG Export Plug-In . SVG Version: 6.00 Build 0)  -->
<svg version="1.1" id="_x37_" xmlns="http://www.w3.org/2000/svg" xmlns:xlink="http://www.w3.org/1999/xlink" x="0px" y="0px"
	 viewBox="0 0 410.3 366.7" style="enable-background:new 0 0 410.3 366.7;" xml:space="preserve">
<style type="text/css">
	.st0{fill:#FFFFFF;}
	.st1{fill:#FC8B3F;}
</style>
<g>
	<g>
		<path d="M236.5,118.7c0,0,5.9-20.6,4.7-27.5c-1.2-6.9,9.1-24,28.9-15.4c19.9,8.6,51.5,18.9,53.7,22.6c2.2,3.7-0.5,4.4,2.7,7.4
			c3.2,2.9,35.3,29.9-20.6,69.4L236.5,118.7z"/>
	</g>
	<g>
		<path d="M142.2,222.5c0,0,14.4-17.1,40.3-16.8s35.2,7.1,35.2,7.1s1.8-6.6,3.1-10.4c1.3-3.8,7.1-4,10.9-2.2
			c3.8,1.8,56.7,16.2,56.7,16.2s3.5,1.1,3.5,4.4c0,3.3-3.5,10.6-2,12.6c1.6,2,38.8,10.6,43.4,11.1c4.7,0.4,21.1,6.6,27.7,24.2
			c6.6,17.5,20.2,75.6,20.2,75.6l-318-0.4l14.4-43.2L142.2,222.5z"/>
	</g>
	<g>
		<path class="st0" d="M231.3,345c-0.1,0-0.3,0-0.4-0.1c-0.7-0.2-1-1-0.8-1.6l20.4-61.3c0.2-0.7,1-1,1.6-0.8c0.7,0.2,1,1,0.8,1.6
			l-20.4,61.3C232.4,344.7,231.9,345,231.3,345z"/>
	</g>
	<g>
		<path class="st0" d="M300.2,345C300.2,345,300.2,345,300.2,345c-0.7,0-1.3-0.6-1.3-1.3l0.2-53.5c0-0.7,0.6-1.3,1.3-1.3
			c0,0,0,0,0,0c0.7,0,1.3,0.6,1.3,1.3l-0.2,53.5C301.5,344.4,300.9,345,300.2,345z"/>
	</g>
	<g>
		<path class="st0" d="M140.7,346c-0.6,0-1.2-0.5-1.3-1.1l-4.1-36.1c-0.1-0.7,0.4-1.3,1.1-1.4c0.7-0.1,1.3,0.4,1.4,1.1l4.1,36.1
			c0.1,0.7-0.4,1.3-1.1,1.4C140.8,345.9,140.7,346,140.7,346z"/>
	</g>
	<g>
		<path class="st0" d="M233.2,182.3c0,0,3.2,13.7-3.5,19.6c-6.7,5.9,46,17.6,46,17.6l19.6-48L233.2,182.3z"/>
		<path d="M276.5,221l-1.1-0.2c-0.1,0-11.4-2.5-22.8-5.8c-20.9-6-24.2-9.2-24.8-11.3c-0.1-0.6-0.2-1.7,0.9-2.7
			c6-5.3,3.1-18.2,3.1-18.3l-0.3-1.3l65.7-11.5L276.5,221z M234.7,183.4c0.6,3.7,1.8,14.3-4.2,19.5c-0.1,0.1-0.2,0.2-0.2,0.2
			c0.3,2.7,20.6,9.6,44.6,14.9l18.3-44.9L234.7,183.4z"/>
	</g>
	<g>
		<path class="st0" d="M255.9,91c0,0,18.5,30,44.1,31c0,0-7.5,12.7-4.2,20.8c3.2,8.1-6.4,17.6-6.4,17.6l5.1,2.9l8.6-12.4
			c0,0,4.4-3.4,10,2.4c5.6,5.8,2.4,18.5-6.6,22.7c-9,4.2-12.7-1.2-12.7-1.2s-11.7,12.7-21.4,15.3c-9.7,2.5-61.5,1.7-58.3-13.7
			c3.2-15.4,5.1-28.8,8.5-37.8C225.9,129.7,255.9,91,255.9,91z"/>
		<path d="M257.5,192.6c-14.7,0-34.9-2.1-42.1-8.9c-2.3-2.2-3.1-4.7-2.6-7.4c0.9-4.5,1.7-8.7,2.5-12.8c1.9-10,3.6-18.7,6-25.1
			c3.4-9.1,32.4-46.4,33.6-48l1.1-1.5l1,1.6c0.2,0.3,18.4,29.4,43,30.4l2.1,0.1l-1.1,1.9c-0.1,0.1-7.1,12.3-4.2,19.7
			c2.8,7.1-3,14.8-5.6,17.8l2.6,1.5l8.1-11.6l0.2-0.1c1.8-1.4,6.7-2.7,11.7,2.5c2.6,2.7,3.7,6.9,2.9,11.5
			c-1.1,5.8-4.8,10.9-9.8,13.2c-7.1,3.4-11.4,1.1-13.2-0.5c-3,3.1-12.6,12.4-21,14.7C270.2,192.1,264.5,192.6,257.5,192.6z
			 M255.9,93.2c-5.4,7.1-29.2,38.1-32.1,45.9c-2.4,6.3-4,14.8-5.9,24.7c-0.8,4.1-1.6,8.4-2.5,12.9c-0.4,1.9,0.2,3.5,1.8,5
			c9.2,8.7,46.6,9.4,54.9,7.2c9.2-2.4,20.6-14.8,20.7-14.9l1.1-1.2l0.9,1.3c0.1,0.2,3.3,4.4,11.1,0.8c4.3-2,7.5-6.4,8.4-11.4
			c0.7-3.8-0.1-7.2-2.2-9.3c-4.2-4.3-7.5-2.8-8.2-2.3l-9.2,13.1l-7.6-4.3l1.2-1.2c0.1-0.1,9-9,6.1-16.2c-2.7-6.8,1.4-16.3,3.4-20.2
			c-10.2-1-20.6-6.5-30.5-16.1C261.7,101.4,257.6,95.8,255.9,93.2z"/>
	</g>
	<g>
		<path d="M278.9,124.5c-0.4,0-0.8-0.2-1-0.5c-7.3-10-17.1-5.3-17.5-5.1c-0.6,0.3-1.4,0.1-1.7-0.6c-0.3-0.6-0.1-1.4,0.6-1.7
			c0.1-0.1,12.1-5.9,20.8,5.9c0.4,0.6,0.3,1.4-0.3,1.8C279.4,124.4,279.2,124.5,278.9,124.5z"/>
	</g>
	<g>
		<path d="M248.8,119.3C248.8,119.3,248.8,119.3,248.8,119.3c-0.8,0-1.3-0.6-1.3-1.3c0.1-2.1-0.4-3.7-1.4-4.6c-1.2-1.1-2.8-1-2.8-1
			c-0.7,0.1-1.3-0.5-1.4-1.2c-0.1-0.7,0.5-1.3,1.2-1.4c0.1,0,2.7-0.2,4.8,1.7c1.6,1.5,2.3,3.7,2.2,6.6
			C250.1,118.7,249.5,119.3,248.8,119.3z"/>
	</g>
	<g>
		<circle class="st0" cx="264.9" cy="133.4" r="13.4"/>
		<path d="M264.9,148.1c-8.1,0-14.7-6.6-14.7-14.7c0-8.1,6.6-14.7,14.7-14.7c8.1,0,14.7,6.6,14.7,14.7
			C279.6,141.5,273,148.1,264.9,148.1z M264.9,121.3c-6.7,0-12.1,5.4-12.1,12.1c0,6.7,5.4,12.1,12.1,12.1s12.1-5.4,12.1-12.1
			C277,126.7,271.6,121.3,264.9,121.3z"/>
	</g>
	<g>
		<circle class="st0" cx="234.4" cy="120.9" r="12"/>
		<path d="M234.4,134.1c-7.3,0-13.3-5.9-13.3-13.3s5.9-13.3,13.3-13.3c7.3,0,13.3,5.9,13.3,13.3S241.7,134.1,234.4,134.1z
			 M234.4,110.2c-5.9,0-10.7,4.8-10.7,10.7c0,5.9,4.8,10.7,10.7,10.7s10.7-4.8,10.7-10.7C245.1,115,240.3,110.2,234.4,110.2z"/>
	</g>
	<g>
		<rect x="289.5" y="130.1" transform="matrix(0.4877 -0.873 0.873 0.4877 23.1119 327.7021)" width="2.6" height="28.2"/>
	</g>
	<g>
		<ellipse transform="matrix(0.6095 -0.7928 0.7928 0.6095 -0.1934 262.0556)" cx="265.9" cy="131.2" rx="5.1" ry="3.3"/>
	</g>
	<g>
		<ellipse transform="matrix(0.625 -0.7806 0.7806 0.625 -3.8385 232.4981)" cx="240.1" cy="120.2" rx="3.8" ry="2.5"/>
	</g>
	<g>
		<path class="st0" d="M253.4,113.7c0,0-21.2,22-21.5,24.6c-0.3,2.5,6.9,11.2,6.9,11.2"/>
		<path d="M238.8,150.8c-0.4,0-0.7-0.2-1-0.5c-6.9-8.2-7.4-11.3-7.2-12.2c0.4-2.7,15.4-18.6,21.9-25.3c0.5-0.5,1.3-0.5,1.8,0
			c0.5,0.5,0.5,1.3,0,1.8c-10,10.4-20.6,22.1-21.2,23.9c-0.1,1,3,5.7,6.7,10.1c0.5,0.5,0.4,1.4-0.2,1.8
			C239.4,150.7,239.1,150.8,238.8,150.8z"/>
	</g>
	<g>
		<path d="M246.9,161.6c-6.3,0-13.6-2.8-13.9-2.9c-0.7-0.3-1-1-0.7-1.7c0.3-0.7,1-1,1.7-0.7c0.1,0,10.5,4.1,16.5,2.3
			c0.7-0.2,1.4,0.2,1.6,0.9c0.2,0.7-0.2,1.4-0.9,1.6C249.8,161.4,248.3,161.6,246.9,161.6z"/>
	</g>
	<g>
		<rect x="248.4" y="119.2" transform="matrix(0.529 -0.8486 0.8486 0.529 12.6406 270.1997)" width="2.6" height="9"/>
	</g>
	<g>
		<path class="st0" d="M282.5,112.7c0,0-8.2,8.9-3.3,19.8s8,12.9,8,15.7c0,2.8-3,13.4-3,13.4s-25.7-10.3-29.2,16.5c0,0-8,4.9-2.8,13
			c0,0-5.6,4.7-4,14.3s7.3,5.9,7.3,5.9s-1.9,22.3,9.7,27l-13.9,45.2l49.6,7c0,0,10.1-140.7,8.3-143.1
			C307.5,144.9,282.5,112.7,282.5,112.7z"/>
		<path d="M302.1,291.9l-52.4-7.4l14-45.6c-9.3-4.8-9.7-20.2-9.6-25.8c-0.9,0.2-2,0.2-3-0.3c-2.1-1-3.5-3.4-4.2-7.3
			c-1.3-8,2.1-12.9,3.7-14.7c-1.3-2.5-1.8-4.9-1.2-7.2c0.8-3.4,3.3-5.5,4.4-6.3c1.1-7.9,4.3-13.4,9.4-16.4c7.4-4.4,16.7-2.1,20.1-1
			c0.9-3.5,2.5-9.9,2.5-11.7c0-0.9-0.6-1.8-1.8-3.8c-1.4-2.2-3.5-5.5-6.1-11.3c-5.2-11.6,3.2-20.8,3.5-21.2l1-1.1l0.9,1.2
			c1,1.3,25.1,32.2,26.8,34.6c0.5,0.8,1.4,1.9-3.3,73.3c-2.3,35.1-4.8,70.3-4.8,70.7L302.1,291.9z M253,282.4l46.7,6.6
			c3.9-54.6,9.3-135.7,8.4-141.1c-2.2-3-21-27.2-25.6-33.1c-1.9,2.7-5.6,9.3-2.1,17.2c2.5,5.6,4.5,8.8,5.9,11
			c1.4,2.2,2.2,3.5,2.2,5.2c0,2.9-2.7,12.6-3,13.7l-0.4,1.4l-1.3-0.5c-0.1,0-11.2-4.3-19.2,0.4c-4.5,2.7-7.3,7.7-8.3,15.1l-0.1,0.6
			l-0.5,0.3c0,0-3,1.9-3.8,5.1c-0.4,1.9,0,4,1.4,6.1l0.6,0.9l-0.9,0.7c-0.2,0.2-5,4.4-3.6,13.1c0.5,2.9,1.4,4.7,2.6,5.3
			c1.3,0.6,2.7-0.3,2.7-0.3l2.2-1.3l-0.2,2.5c0,0.2-1.7,21.4,8.9,25.6l1.1,0.4L253,282.4z M308.1,147.8L308.1,147.8
			C308.1,147.8,308.1,147.8,308.1,147.8z"/>
	</g>
	<g>
		<path class="st0" d="M25.2,152.4c2.1,4.1,68.6,75.7,68.6,75.7l-14.9,75.2c0,0,36.2,22.9,55,7.6l3.8-50.8c0,0,20.6-41.1,13.7-58.9
			c-6.9-17.8-24.4-50-23.4-56.9c1-6.9-11.7-10.2-12.2,0s4.3,40.4,4.3,40.4L90,184.1c0,0-3.4-28.4-7-32.7c-3.7-4.3-10.6-7.2-10.6-1.5
			c0,5.7,0.4,19.1,0.4,19.1s-6-17.6-7.9-21.6c-1.9-4-9.4-13-12.6-10.1c-3.2,2.9,2.8,25.8,2.8,25.8s-17.7-15-20.7-14.8
			C31.5,148.5,21.9,145.7,25.2,152.4z"/>
		<path d="M117.3,317.4c-18.1,0-37.9-12.4-39.1-13.1l-0.7-0.5l14.9-75.4c-8.6-9.3-66.3-71.4-68.3-75.5l0,0c-1-2-1.1-3.6-0.3-4.7
			c1.5-2.1,5-1.7,8.2-1.3c1,0.1,1.9,0.2,2.4,0.2c0,0,0,0,0.1,0c2.7,0,12.3,7.5,18.5,12.6c-1.8-7.5-4.4-20.6-1.4-23.2
			c0.6-0.5,1.6-1.1,3.2-0.8c4.2,0.8,9.8,7.9,11.4,11.3c1.1,2.2,3.4,8.5,5.2,13.8c-0.1-3.8-0.2-8.1-0.2-10.7c0-2.9,1.5-3.9,2.4-4.2
			c3-1.1,7.6,1.6,10.4,4.8c3.5,4.1,6.5,26.4,7.2,32.3l27.6,0.5c-1-6.3-4.5-30.1-4.1-39.1c0.2-4.5,2.6-6.3,4-7c2.4-1.1,5.6-0.8,8,1
			c2.1,1.6,3.1,3.8,2.7,6.3c-0.6,3.9,6.5,19.1,12.8,32.6c3.9,8.4,8,17.1,10.5,23.7c3,7.7,1.5,20.1-4.3,37
			c-3.9,11.4-8.6,21.1-9.4,22.7l-3.9,51.1l-0.4,0.3C129.7,315.9,123.6,317.4,117.3,317.4z M80.4,302.6c5.2,3.1,35.8,20.3,52.3,7.6
			l3.8-50.5l0.1-0.2c0.2-0.4,20.2-40.8,13.7-57.9c-2.5-6.5-6.5-15.2-10.4-23.5c-8.5-18.2-13.6-29.6-13-34c0.3-2-1-3.3-1.7-3.8
			c-1.6-1.2-3.8-1.5-5.3-0.7c-1.6,0.7-2.4,2.4-2.6,4.8c-0.5,9.9,4.3,39.8,4.3,40.1l0.2,1.5l-32.9-0.6l-0.1-1.1
			c-1.3-10.8-4.3-29.1-6.7-32c-2.5-2.9-6.1-4.6-7.6-4.1c-0.5,0.2-0.7,0.8-0.7,1.8c0,5.6,0.4,18.9,0.4,19l0.3,8.6l-2.8-8.2
			c-0.1-0.2-6-17.6-7.9-21.4c-1.7-3.4-6.7-9.4-9.6-9.9c-0.6-0.1-0.8,0-1,0.2c-1.4,1.3,0,12.5,3.2,24.5l1,3.9l-3.1-2.6
			c-8.1-6.9-18-14.3-19.8-14.5c-0.7,0-1.7-0.1-2.8-0.2c-1.7-0.2-5.2-0.6-5.8,0.3c-0.2,0.2-0.1,0.9,0.5,2.1l0,0
			c1.5,3,41.7,46.7,68.4,75.4l0.4,0.5L80.4,302.6z"/>
	</g>
	<g>
		<path d="M117.1,224c-0.6,0-1.1-0.4-1.3-1c-0.9-4.7-10.7-17.3-16-22.2c-0.7-0.7-1.5-1.3-2.2-2c-4.6-4.1-8.9-7.9-8.9-14.7
			c0-0.7,0.6-1.3,1.3-1.3c0.7,0,1.3,0.6,1.3,1.3c0,5.6,3.5,8.8,8,12.7c0.7,0.7,1.5,1.3,2.2,2c5.1,4.7,15.7,17.8,16.8,23.6
			c0.1,0.7-0.3,1.4-1,1.5C117.3,224,117.2,224,117.1,224z"/>
	</g>
	<g>
		<path d="M72.4,196C72.4,196,72.4,196,72.4,196c-0.7,0-1.3-0.6-1.3-1.3l0.4-25.7c0-0.7,0.6-1.3,1.3-1.3c0.7,0,1.3,0.6,1.3,1.3
			l-0.4,25.7C73.7,195.4,73.1,196,72.4,196z"/>
	</g>
	<g>
		<path d="M59.9,182.3c-0.6,0-1.1-0.4-1.2-1l-6.7-26.8c-0.2-0.7,0.2-1.4,0.9-1.6c0.7-0.2,1.4,0.2,1.6,0.9l6.7,26.8
			c0.2,0.7-0.2,1.4-0.9,1.6C60.1,182.3,60,182.3,59.9,182.3z"/>
	</g>
	<g>
		<path d="M286.3,195.2c-0.1,0-0.3,0-0.4-0.1c-7.2-2.5-27.2-7.9-32.8-3c-0.5,0.5-1.4,0.4-1.8-0.1c-0.5-0.5-0.4-1.4,0.1-1.8
			c3.4-2.9,10.5-3.4,20.9-1.3c7.6,1.5,14.1,3.8,14.4,3.9c0.7,0.2,1,1,0.8,1.6C287.3,194.9,286.8,195.2,286.3,195.2z"/>
	</g>
	<g>
		<path d="M289.1,179.7c-0.1,0-0.3,0-0.4-0.1c-0.2-0.1-23.2-7-33-0.5c-0.6,0.4-1.4,0.2-1.8-0.4s-0.2-1.4,0.4-1.8
			c10.8-7.2,34.2-0.1,35.2,0.2c0.7,0.2,1.1,0.9,0.9,1.6C290.2,179.4,289.6,179.7,289.1,179.7z"/>
	</g>
	<g>
		<path d="M294.3,165.1c-0.1,0-0.2,0-0.3,0l-10.1-2.3c-0.7-0.2-1.1-0.8-1-1.5c0.2-0.7,0.8-1.1,1.5-1l10.1,2.3c0.7,0.2,1.1,0.8,1,1.5
			C295.4,164.7,294.9,165.1,294.3,165.1z"/>
	</g>
	<g>
		<path d="M255.9,211c-0.6,0-1.1-0.4-1.2-0.9c-1.3-4.6,0-7.1,1.2-8.3c2-2,5-2.1,6.6-1.7c2.5,0.7,12,4.1,12.4,4.2
			c0.7,0.2,1,1,0.8,1.6c-0.2,0.7-1,1-1.6,0.8c-0.1,0-9.8-3.5-12.3-4.1c-1-0.3-2.9-0.1-4.1,1c-1.4,1.5-1.1,4-0.6,5.8
			c0.2,0.7-0.2,1.4-0.9,1.6C256.1,211,256,211,255.9,211z"/>
	</g>
	<g>
		<path class="st1" d="M131,85.3c0.3-2,0.5-4.1,0.5-6.3c0-23.7-19.2-42.9-42.9-42.9S45.8,55.4,45.8,79c0,15.3,8,28.7,20.1,36.3
			c0.3,0.2,31.4,22.2,34.7,28.4l34.7-19.6C135.3,124.1,130.8,97.6,131,85.3z"/>
	</g>
	<g>
		<path d="M134.9,163.3L134.9,163.3c-10.2,5.9-23.2,2.4-29.1-7.8l-7.2-12.5l36.9-21.3l7.2,12.5C148.6,144.4,145.1,157.4,134.9,163.3
			z"/>
	</g>
	<g>
		<path class="st0" d="M112.7,134.4c-0.5,0-1-0.3-1.2-0.8c-3.3-7.4-6.5-14-9.9-20.2c-0.4-0.7-0.7-1.3-1.1-2c-1-1.8-2-3.8-3.2-5.6
			c-2.4,1.6-5.1,2.9-8,3.4c-5.6,1-11.2-2.2-12.9-7.4c-0.7-2.1-0.4-4,0.7-5.1c0.9-1,2.2-1.3,3.2-1.4c5-0.7,10.4,0.7,14.5,3.9
			c1.1,0.9,2.1,1.9,3.1,3.1c1.4-1.1,2.7-2.2,3.8-3.3c0.3-0.3,0.6-0.6,0.9-0.8c-1-1.6-1.7-2.8-2.1-3.5l-0.7-1
			c-2.4-3.7-4.1-6.2-4.3-12.3c-0.2-4.4,2.8-9.4,6.7-11c2.7-1.2,5.4-0.6,7.5,1.6c2.2,2.3,3.4,5.7,3.3,9.6c-0.1,5.7-2.8,11.8-7.3,16.9
			c5.8,9.8,16.7,28.6,17.3,29.6c0.4,0.6,0.1,1.4-0.5,1.8c-0.6,0.4-1.4,0.1-1.8-0.5c-0.1-0.2-10.9-18.9-16.9-29
			c-0.1,0.1-0.3,0.3-0.5,0.4c-1.2,1.1-2.6,2.4-4.1,3.5c1.3,1.9,2.4,4,3.4,5.9c0.4,0.7,0.7,1.3,1.1,2c3.4,6.3,6.7,12.9,10,20.4
			c0.3,0.6,0,1.4-0.7,1.7C113,134.3,112.8,134.4,112.7,134.4z M82.9,97.6c-0.7,0-1.5,0.1-2.2,0.2c-0.6,0.1-1.4,0.2-1.8,0.6
			c-0.5,0.6-0.4,1.7-0.1,2.6c1.3,3.9,5.8,6.5,10,5.7c2.5-0.5,4.8-1.6,7-3c-0.8-1-1.6-1.8-2.5-2.6C90.3,98.8,86.6,97.6,82.9,97.6z
			 M104.8,72.2c-0.5,0-1.1,0.1-1.7,0.4c-2.9,1.2-5.3,5.2-5.1,8.6c0.2,5.3,1.5,7.3,3.9,10.9l0.7,1c0.4,0.6,1,1.6,1.8,2.9
			c3.8-4.5,6-9.8,6.1-14.6c0.1-3.2-0.8-6-2.6-7.8C106.9,72.7,105.9,72.2,104.8,72.2z"/>
	</g>
	<g>
		<path class="st1" d="M129.1,45.3c-0.5,0-0.9-0.2-1.3-0.6c-0.6-0.7-0.6-1.8,0.2-2.4l13.9-12.2c0.7-0.6,1.8-0.6,2.4,0.2
			c0.6,0.7,0.6,1.8-0.2,2.4l-13.9,12.2C130,45.2,129.5,45.3,129.1,45.3z"/>
	</g>
	<g>
		<path class="st1" d="M138.9,60.4c-0.7,0-1.3-0.4-1.6-1c-0.4-0.9,0-1.9,0.9-2.3l17.6-7.4c0.9-0.4,1.9,0,2.3,0.9
			c0.4,0.9,0,1.9-0.9,2.3l-17.6,7.4C139.3,60.4,139.1,60.4,138.9,60.4z"/>
	</g>
	<g>
		<path class="st1" d="M157.3,79.4c-0.2,0-0.3,0-0.5-0.1l-16.1-5.2c-0.9-0.3-1.4-1.3-1.1-2.2c0.3-0.9,1.3-1.4,2.2-1.1l16.1,5.2
			c0.9,0.3,1.4,1.3,1.1,2.2C158.7,79,158,79.4,157.3,79.4z"/>
	</g>
</g>
</svg>
