<svg width="126" height="73" viewBox="0 0 126 73" fill="none" xmlns="http://www.w3.org/2000/svg">
<path d="M96.909 0.295998C106.125 0.295998 113.25 3.06933 118.285 8.616C123.405 14.1627 125.965 21.672 125.965 31.144V73H97.677V34.728C97.677 31.656 96.7383 29.2667 94.861 27.56C93.069 25.768 90.637 24.872 87.565 24.872C84.4077 24.872 81.933 25.768 80.141 27.56C78.349 29.2667 77.453 31.656 77.453 34.728V73H49.165V34.728C49.165 31.656 48.2263 29.2667 46.349 27.56C44.557 25.768 42.125 24.872 39.053 24.872C35.8957 24.872 33.421 25.768 31.629 27.56C29.837 29.2667 28.941 31.656 28.941 34.728V73H0.525V0.807999H28.941V10.536C30.989 7.46399 33.7623 4.98933 37.261 3.112C40.845 1.23466 45.0263 0.295998 49.805 0.295998C55.0103 0.295998 59.6183 1.448 63.629 3.752C67.6397 5.97066 70.8397 9.128 73.229 13.224C75.8743 9.46933 79.245 6.39733 83.341 4.008C87.437 1.53333 91.9597 0.295998 96.909 0.295998Z" fill="#2B7FFF"/>
</svg>
