<?xml version="1.0" standalone="no"?>
<!DOCTYPE svg PUBLIC "-//W3C//DTD SVG 20010904//EN"
 "http://www.w3.org/TR/2001/REC-SVG-20010904/DTD/svg10.dtd">
<svg version="1.0" xmlns="http://www.w3.org/2000/svg"
 width="712.000000pt" height="831.000000pt" viewBox="0 0 712.000000 831.000000"
 preserveAspectRatio="xMidYMid meet">

<g transform="translate(0.000000,831.000000) scale(0.100000,-0.100000)"
fill="#4E3787" stroke="none">
<path d="M790 7700 l0 -460 460 0 460 0 0 460 0 460 -460 0 -460 0 0 -460z"/>
<path d="M2670 5311 l0 -2781 465 0 465 0 0 2294 0 2294 113 -29 c222 -58 417
-140 608 -256 400 -242 692 -562 894 -978 109 -224 166 -403 212 -670 16 -92
18 -279 23 -2409 l5 -2309 117 119 c381 386 638 864 747 1389 58 285 54 73 58
3228 l4 2887 -466 0 -465 0 0 -486 0 -486 -87 82 c-457 428 -1008 712 -1613
829 -227 44 -325 52 -707 58 l-373 6 0 -2782z"/>
<path d="M793 4758 l3 -1553 22 -140 c45 -274 103 -488 198 -730 405 -1024
1331 -1786 2413 -1986 217 -40 342 -50 704 -56 l357 -6 0 466 0 465 -357 4
c-396 5 -478 15 -727 83 -534 146 -1001 488 -1317 965 -135 204 -262 499 -317
735 -59 254 -56 167 -59 1803 l-4 1502 -460 0 -460 0 4 -1552z"/>
</g>
</svg>
