<?xml version="1.0" standalone="no"?>
<!DOCTYPE svg PUBLIC "-//W3C//DTD SVG 20010904//EN"
 "http://www.w3.org/TR/2001/REC-SVG-20010904/DTD/svg10.dtd">
<svg version="1.0" xmlns="http://www.w3.org/2000/svg"
 width="500.000000pt" height="500.000000pt" viewBox="0 0 500.000000 500.000000"
 preserveAspectRatio="xMidYMid meet">

<g transform="translate(0.000000,500.000000) scale(0.100000,-0.100000)"
fill="#FA1D41" stroke="none">
<path d="M2297 4989 c-796 -66 -1518 -511 -1931 -1193 -263 -434 -394 -962
-358 -1448 56 -757 404 -1402 998 -1849 464 -349 1080 -532 1647 -491 755 56
1403 406 1847 997 351 469 534 1080 492 1648 -56 755 -406 1403 -997 1847
-483 362 -1097 539 -1698 489z m2140 -1915 c15 -11 38 -40 51 -64 22 -44 22
-47 22 -510 0 -463 0 -466 -22 -510 -13 -24 -36 -53 -51 -64 -28 -21 -38 -21
-647 -21 -609 0 -619 0 -646 21 -15 11 -37 33 -48 48 -20 27 -21 41 -24 499
-2 260 0 486 3 504 7 40 49 91 90 109 24 11 148 13 637 11 595 -2 607 -2 635
-23z m-3841 -255 c16 -18 20 -42 24 -151 l5 -131 129 146 c71 81 138 149 149
153 27 8 66 -15 74 -44 8 -35 -5 -57 -101 -164 l-86 -97 108 -143 c60 -79 112
-152 116 -164 9 -30 -28 -74 -63 -74 -33 0 -43 10 -155 168 -49 67 -92 122
-96 122 -5 0 -25 -20 -44 -44 -34 -41 -36 -47 -36 -115 0 -69 -11 -108 -34
-123 -20 -14 -56 -8 -76 12 -19 19 -20 33 -20 319 0 287 1 299 21 325 25 31
59 34 85 5z m599 -4 c25 -24 25 -25 25 -230 0 -153 4 -214 14 -239 41 -98 209
-106 266 -13 18 29 20 51 20 245 0 213 0 213 25 237 29 30 45 31 76 6 24 -19
24 -20 24 -248 -1 -217 -2 -230 -24 -281 -91 -204 -404 -209 -497 -7 -23 48
-24 60 -24 283 0 219 1 233 20 252 26 26 46 25 75 -5z m675 5 c18 -18 20 -33
20 -155 l0 -135 136 151 c75 83 143 153 151 156 37 14 86 -37 75 -79 -2 -10
-44 -64 -93 -120 -49 -56 -89 -105 -89 -109 0 -4 39 -58 87 -120 113 -147 133
-178 133 -200 0 -28 -36 -59 -69 -59 -26 0 -41 16 -138 150 l-108 150 -42 -48
c-42 -47 -42 -47 -43 -127 0 -92 -15 -125 -57 -125 -15 0 -35 7 -45 17 -17 15
-18 39 -18 329 0 312 0 313 22 328 30 21 54 20 78 -4z m600 0 c19 -19 20 -33
20 -225 0 -152 4 -214 14 -238 55 -130 255 -117 286 19 5 21 10 126 10 232 0
178 1 193 20 212 27 27 55 25 79 -6 20 -25 21 -39 21 -234 0 -256 -8 -292 -84
-366 -59 -57 -117 -79 -207 -77 -99 2 -183 55 -232 147 -21 38 -22 56 -25 277
l-3 237 27 21 c33 26 49 26 74 1z"/>
<path d="M3776 2804 c-14 -13 -16 -55 -16 -303 0 -307 1 -311 51 -311 48 0 54
18 59 211 l5 179 70 -103 c66 -96 72 -102 105 -102 32 0 40 8 115 104 l80 103
5 -186 c5 -198 7 -205 56 -206 43 0 44 10 44 312 l0 288 -25 16 c-23 15 -27
15 -48 1 -13 -9 -68 -77 -121 -151 -53 -75 -99 -136 -101 -136 -2 0 -41 53
-87 117 -132 187 -154 206 -192 167z"/>
<path d="M3236 2788 c-14 -19 -16 -64 -16 -288 0 -293 3 -310 59 -310 45 0 51
15 51 132 l0 108 118 0 c74 0 126 5 142 13 33 16 38 59 11 86 -19 19 -33 21
-146 21 l-126 0 3 73 3 72 148 5 c157 5 167 9 167 57 0 49 -18 53 -215 53
-179 0 -184 -1 -199 -22z"/>
</g>
</svg>
